<?xml version="1.0" encoding="UTF-8" standalone="no"?>
<!-- Created with Inkscape (http://www.inkscape.org/) -->

<svg
   width="148.28577mm"
   height="146.62813mm"
   viewBox="0 0 148.28577 146.62813"
   version="1.1"
   id="svg1"
   xml:space="preserve"
   xmlns="http://www.w3.org/2000/svg"
   xmlns:svg="http://www.w3.org/2000/svg"><defs
     id="defs1" /><g
     id="layer1"
     transform="translate(-27.817933,-63.435463)"><path
       style="fill:#000000"
       d="m 46.54379,209.60092 c -1.743851,-0.79177 -2.533939,-2.57886 -1.938194,-4.38399 0.555247,-1.68241 2.762829,-2.78826 6.383995,-3.19795 l 1.609941,-0.18215 -0.152794,-0.95478 c -0.08404,-0.52513 -0.407729,-1.16314 -0.719318,-1.4178 -0.758135,-0.61963 -2.534004,-0.59529 -4.189933,0.0574 l -1.320371,0.52044 -0.54864,-0.69748 c -0.301752,-0.38362 -0.506408,-0.82618 -0.454792,-0.98346 0.175069,-0.53349 2.122481,-1.4328 3.779802,-1.74552 3.09903,-0.58474 5.514926,0.65454 6.194283,3.17748 0.158063,0.587 0.246678,2.95041 0.205396,5.47807 l -0.07261,4.44565 -0.877179,0.0842 c -0.99209,0.0952 -1.636362,-0.31214 -1.636362,-1.03466 0,-0.4457 -0.08442,-0.43151 -0.957394,0.16091 -1.832678,1.24368 -3.565683,1.4637 -5.305834,0.67362 z m 4.408222,-2.26381 c 1.053154,-0.5446 1.590422,-1.39915 1.590422,-2.52964 v -0.95517 l -1.42773,0.19374 c -2.706645,0.3673 -3.599353,0.89433 -3.599353,2.12494 0,1.38356 1.821192,2.00152 3.436661,1.16613 z m 57.275278,2.49517 c -2.63106,-0.76514 -3.39351,-4.75747 -1.20605,-6.31508 0.84768,-0.6036 3.06044,-1.23998 5.11859,-1.47207 l 1.52135,-0.17156 v -1.0332 c 0,-0.81058 -0.14276,-1.12674 -0.66259,-1.46734 -0.87553,-0.57367 -2.36049,-0.52825 -4.01201,0.12272 -1.22031,0.481 -1.39518,0.49229 -1.92094,0.12403 -0.38727,-0.27125 -0.55157,-0.62374 -0.49717,-1.06664 0.0651,-0.5302 0.39634,-0.79476 1.66875,-1.33291 3.28238,-1.38824 6.67626,-0.67896 7.87915,1.64663 0.47522,0.91877 0.56437,1.6699 0.66745,5.62338 0.13256,5.08438 0.0583,5.3589 -1.44901,5.3589 -0.76908,0 -0.94932,-0.12024 -1.18238,-0.78879 l -0.27497,-0.78879 -0.83574,0.61996 c -1.5275,1.13311 -3.09785,1.43996 -4.81443,0.94076 z m 4.66966,-3.05413 c 0.601,-0.57579 0.76423,-0.96554 0.76423,-1.82474 v -1.09256 l -1.53227,0.18067 c -1.54438,0.18209 -3.23023,0.85788 -3.23023,1.29486 0,0.12988 -0.0702,0.41919 -0.15608,0.6429 -0.0929,0.24208 0.12946,0.6923 0.54928,1.11211 0.60033,0.60033 0.86436,0.68404 1.7731,0.56215 0.66525,-0.0892 1.35583,-0.41921 1.83197,-0.87539 z m 39.65627,3.08837 c -2.0391,-0.62027 -3.99896,-2.44386 -4.47712,-4.16584 -0.40486,-1.45798 -0.34764,-4.10047 0.11264,-5.20208 1.23399,-2.95335 4.29567,-4.52446 7.5159,-3.85681 1.16521,0.24159 1.71373,0.54003 2.57569,1.40139 1.65568,1.65452 2.31709,4.4259 1.34947,5.6544 -0.18936,0.24041 -1.43877,0.33073 -4.57526,0.33073 h -4.31475 l 0.2411,0.8599 c 0.13261,0.47294 0.65833,1.24684 1.16827,1.71979 0.81152,0.75264 1.10793,0.85989 2.37646,0.85989 0.83415,0 2.02963,-0.22874 2.81655,-0.53892 1.28687,-0.50723 1.39633,-0.5126 1.86188,-0.0913 0.70374,0.63688 0.62389,1.59164 -0.17701,2.11641 -1.38431,0.90703 -4.87443,1.39893 -6.47382,0.91242 z m 4.39634,-8.80205 c -0.35456,-1.77277 -2.10191,-2.68893 -3.95935,-2.07592 -1.0707,0.35337 -1.33477,0.62621 -1.88838,1.9512 l -0.40608,0.97189 h 3.21162 3.21162 z m -123.920146,8.60944 c -0.468413,-0.189 -0.481181,-18.3539 -0.01323,-18.82185 0.448384,-0.44838 10.558283,-0.44838 11.006666,0 0.409289,0.40929 0.409289,1.60154 0,2.01083 -0.21734,0.21734 -1.511064,0.3175 -4.101041,0.3175 h -3.783542 v 2.90274 2.90274 l 3.505729,0.0738 3.505729,0.0738 v 1.19062 1.19063 l -3.174999,0.16256 c -1.74625,0.0894 -3.323828,0.17871 -3.505729,0.19844 -0.246873,0.0268 -0.33073,0.96165 -0.33073,3.68712 0,2.48709 -0.101231,3.75248 -0.317499,3.96875 -0.311626,0.31163 -2.140625,0.40485 -2.791355,0.14227 z m 25.52244,0.011 c -0.103723,-0.10372 -0.188587,-3.02624 -0.188587,-6.49449 v -6.3059 h 1.19724 c 1.118134,0 1.20771,0.0524 1.355712,0.79236 l 0.158473,0.79237 0.888859,-0.78043 c 1.374214,-1.20658 2.727489,-1.51489 4.192873,-0.95526 0.672746,0.25693 1.441964,0.8022 1.758221,1.24634 0.557387,0.78278 0.565546,0.78485 0.946869,0.24043 0.419384,-0.59875 1.904504,-1.422 3.071561,-1.70267 1.104101,-0.26552 2.827916,0.3075 3.77543,1.25502 1.135217,1.13521 1.440178,2.73153 1.440178,7.53861 0,4.27859 -0.08492,4.53781 -1.486485,4.53781 -1.735617,0 -1.688515,0.13767 -1.688515,-4.93512 0,-4.54596 -0.0096,-4.6235 -0.649432,-5.26336 -0.357187,-0.35715 -0.896792,-0.64939 -1.199123,-0.64939 -0.878746,0 -2.31723,0.70232 -2.628065,1.28312 -0.170494,0.31857 -0.28588,2.23676 -0.28588,4.7525 0,4.73613 -0.06216,4.90364 -1.767472,4.76322 l -1.010652,-0.0832 -0.16324,-4.74588 -0.163239,-4.74588 -0.742928,-0.63904 c -0.929465,-0.7995 -2.282478,-0.66008 -3.281997,0.33817 -0.660169,0.65933 -0.678716,0.77947 -0.807971,5.23373 l -0.132292,4.5589 -1.200476,0.0783 c -0.660261,0.0431 -1.285339,-0.007 -1.389062,-0.11024 z m 26.851829,-0.15331 c -0.45484,-0.45484 -0.45484,-18.22474 0,-18.67958 0.48721,-0.48721 7.170107,-0.42258 8.882346,0.0859 2.61553,0.77673 4.02932,2.65565 4.02932,5.35494 0,2.73935 -1.59523,4.95482 -4.20667,5.84227 -0.49466,0.1681 -1.953173,0.30564 -3.241145,0.30564 h -2.341768 v 3.38667 c 0,2.28129 -0.103629,3.49029 -0.3175,3.70416 -0.174625,0.17463 -0.805656,0.3175 -1.402292,0.3175 -0.596635,0 -1.227666,-0.14287 -1.402291,-0.3175 z m 8.528186,-10.51318 c 1.47224,-1.38409 1.37137,-3.98489 -0.19979,-5.15134 -0.585459,-0.43465 -1.22519,-0.57445 -2.961051,-0.64709 l -2.214246,-0.0927 -0.08165,3.35756 -0.08165,3.35757 2.426569,-0.0899 c 2.139198,-0.0793 2.507722,-0.1662 3.111826,-0.73413 z m 6.526241,10.46525 c -0.475761,-0.57326 -0.35516,-19.36001 0.12685,-19.76004 0.18541,-0.15388 0.85193,-0.24274 1.48115,-0.19747 l 1.14403,0.0823 v 10.05417 10.05416 l -1.2138,0.0789 c -0.82626,0.0537 -1.31738,-0.0459 -1.53823,-0.31203 z m 19.31583,0.002 c -0.21169,-0.25508 -0.28073,-2.17415 -0.23083,-6.41615 l 0.0712,-6.05222 1.12324,-0.0813 c 0.97475,-0.0705 1.16232,0.004 1.41873,0.56721 l 0.29548,0.64851 0.93267,-0.63293 c 2.59693,-1.76232 5.61837,-1.2408 7.06349,1.2192 0.48163,0.81988 0.55394,1.46039 0.63546,5.6294 0.10176,5.20427 0.0295,5.4822 -1.42566,5.4822 -1.7528,0 -1.70865,0.1218 -1.71294,-4.72466 -0.004,-4.83391 -0.16855,-5.52233 -1.41649,-5.93641 -0.92524,-0.30701 -2.60804,0.13742 -3.35727,0.88665 -0.46691,0.46691 -0.51401,0.9092 -0.51401,4.82671 0,3.00156 -0.0965,4.40924 -0.3175,4.63021 -0.43342,0.43342 -2.19377,0.40157 -2.56557,-0.0464 z m 14.39107,0.12485 c -0.16406,-0.16379 -0.23478,-2.61005 -0.18774,-6.49414 l 0.0755,-6.23137 h 1.18792 c 1.11239,0 1.19817,0.0513 1.3492,0.80642 0.16087,0.80433 0.16274,0.80509 0.72099,0.29553 2.83465,-2.5874 6.96491,-1.75148 7.96369,1.61176 0.51077,1.71997 0.57585,9.44124 0.0837,9.93337 -0.17462,0.17463 -0.70066,0.3175 -1.16898,0.3175 -1.72929,0 -1.68813,0.11492 -1.69242,-4.72466 -0.003,-2.96549 -0.11062,-4.61264 -0.33073,-5.04403 -0.69949,-1.37097 -3.0799,-1.2967 -4.51755,0.14095 -0.68342,0.68342 -0.69239,0.74324 -0.76395,5.0935 l -0.0724,4.40195 -1.192,0.078 c -0.6556,0.0429 -1.31044,-0.0402 -1.45521,-0.18478 z m 28.50524,0.0179 c -0.25902,-0.1644 -0.31947,-1.62932 -0.26458,-6.41209 l 0.0711,-6.19901 h 1.19063 c 1.14826,0 1.19905,0.0341 1.42733,0.95781 l 0.2367,0.95782 0.75427,-0.85907 c 0.96234,-1.09605 1.97139,-1.5089 3.43221,-1.40428 1.13747,0.0815 1.16263,0.10358 1.24417,1.09379 0.0957,1.16207 -0.33975,1.84768 -1.03361,1.62745 -0.88234,-0.28004 -2.54336,0.37806 -3.39107,1.34354 l -0.81792,0.93156 v 3.77434 c 0,2.58281 -0.10023,3.87456 -0.3175,4.09183 -0.35791,0.35792 -2.01998,0.42114 -2.53176,0.0963 z M 79.854464,196.92721 c -0.412052,-0.26151 -0.478119,-0.59692 -0.71469,-3.6284 -0.216301,-2.77174 -0.02807,-3.11616 1.628465,-2.97976 l 1.010652,0.0832 -0.04499,3.14631 c -0.0458,3.20317 -0.169947,3.59246 -1.145634,3.59246 -0.218281,0 -0.548492,-0.0962 -0.733802,-0.21383 z m -29.66356,-20.04 c -4.625951,-1.24408 -8.254473,-5.10358 -9.258092,-9.84744 -0.207373,-0.9802 -0.296627,-9.08078 -0.296627,-26.92135 v -25.51927 h -3.294268 c -3.906627,0 -5.494364,-0.29567 -7.118397,-1.3256 -1.654729,-1.0494 -2.398399,-2.5209 -2.405533,-4.75982 -0.01059,-3.32413 1.578199,-5.26003 6.234282,-7.59628 1.511102,-0.75822 3.81902,-2.014363 5.128708,-2.791423 1.309687,-0.77706 4.405312,-2.585142 6.879166,-4.017953 2.473854,-1.432811 5.926666,-3.440793 7.672916,-4.462183 1.74625,-1.02139 4.841875,-2.830561 6.879167,-4.020379 2.037291,-1.189818 5.430572,-3.172406 7.540624,-4.405751 2.110052,-1.233345 5.443802,-3.176974 7.408333,-4.319176 1.964531,-1.142202 5.23875,-3.050903 7.276041,-4.241559 2.037292,-1.190655 5.132917,-2.999711 6.879167,-4.020124 8.224528,-4.805965 9.193688,-5.215835 12.303129,-5.203168 1.0914,0.0044 2.64954,0.209893 3.46253,0.456549 0.81298,0.246656 4.56345,2.248803 8.33437,4.449217 14.02091,8.181503 20.4031,11.861813 20.57011,11.861813 0.0608,0 0.18164,-0.355269 0.26849,-0.789487 0.0868,-0.434218 0.56861,-1.23789 1.07061,-1.785937 l 0.91271,-0.99645 6.17236,-0.07275 c 9.00065,-0.106088 8.63048,-0.488716 8.70388,8.996679 l 0.0503,6.499143 -1.84448,1.739988 -1.84448,1.739988 -1.43081,-1.22549 c -1.76725,-1.513656 -3.81986,-2.844334 -5.75174,-3.728781 -3.23926,-1.482981 -6.83888,-0.692139 -9.42271,2.070184 -2.52305,2.697351 -3.22076,5.793709 -2.02455,8.98486 0.46875,1.2505 1.17472,2.08295 5.03335,5.93502 2.46847,2.46428 4.42809,4.57764 4.35472,4.69636 -0.0734,0.11871 -1.52535,0.21468 -3.22663,0.21326 -2.68732,-0.002 -3.26827,-0.0841 -4.42697,-0.62365 -2.40696,-1.12083 -3.76947,-3.38311 -4.01819,-6.67169 l -0.14842,-1.96249 h -8.25889 -8.25889 l -0.13698,2.19557 c -0.16559,2.65426 -0.73847,3.9145 -2.47378,5.44198 -1.55623,1.36985 -2.47331,1.62018 -5.9305,1.6188 -2.363141,-9.4e-4 -2.978541,-0.0944 -4.119791,-0.62585 -0.73791,-0.34361 -1.72371,-1.08659 -2.19065,-1.65106 -0.97873,-1.18317 -1.89164,-3.86262 -1.89164,-5.55211 v -1.16275 H 85.218474 76.8841 v 1.68652 c 0,3.08512 -1.319794,5.41012 -3.76188,6.62706 -1.236572,0.61621 -1.668288,0.68225 -4.459841,0.68225 -3.515285,0 -4.418505,-0.26305 -6.090833,-1.7739 -1.568455,-1.41701 -2.156953,-2.74684 -2.30372,-5.20575 l -0.124441,-2.08485 -3.205163,0.13957 c -1.762839,0.0768 -3.643122,0.30058 -4.178406,0.49736 -1.705986,0.62715 -3.218393,1.9018 -4.05384,3.41655 l -0.79375,1.43915 -0.179015,11.37708 c -0.230357,14.64004 -0.01747,42.16155 0.34024,43.98434 0.555039,2.82837 3.030032,5.21584 6.086584,5.87135 0.861312,0.18472 16.985707,0.33822 47.954185,0.45652 l 46.65655,0.17822 1.69541,-0.79338 c 2.07801,-0.97241 3.2873,-2.14452 4.18345,-4.05482 l 0.68342,-1.45682 0.22542,-25.59134 0.22541,-25.59134 6.4817,-6.46696 6.4817,-6.46697 1.23039,0.70795 c 0.67671,0.38936 1.56185,0.87781 1.96698,1.08543 1.13952,0.58398 2.73417,2.21799 3.3581,3.44101 1.61651,3.16861 0.59433,6.55537 -2.45746,8.14224 -1.29119,0.67139 -1.62466,0.71982 -5.61918,0.81599 l -4.24653,0.10223 -0.069,25.96922 c -0.0468,17.5904 -0.16198,26.35336 -0.35712,27.15984 -1.053,4.35194 -5.0104,8.21025 -9.47668,9.2394 -0.79089,0.18224 -17.80954,0.26903 -51.32181,0.26171 -42.925385,-0.009 -50.343614,-0.0661 -51.564026,-0.3943 z m 21.41065,-68.77035 c 1.154771,-1.03033 1.313796,-1.9116 1.313796,-7.28069 0,-6.93949 -0.266878,-7.403691 -4.256523,-7.403691 -1.9451,0 -2.395629,0.08569 -3.015899,0.573591 -1.288006,1.013145 -1.458828,1.861997 -1.458828,7.24928 0,7.01106 0.349474,7.58569 4.536666,7.45958 1.850145,-0.0557 2.401145,-0.17012 2.880788,-0.59807 z m 33.530706,-0.24373 0.9883,-0.90518 0.081,-5.57206 c 0.0915,-6.300659 -0.0689,-7.05435 -1.66274,-7.810674 -1.17411,-0.557154 -3.89323,-0.54347 -5.092521,0.02563 -1.6535,0.784639 -1.91211,1.807117 -1.91884,7.586854 -0.008,6.9829 0.33298,7.54894 4.562141,7.57026 1.97612,0.01 2.09206,-0.0241 3.04271,-0.89483 z m -46.889659,58.91611 c -0.0975,-0.25409 -0.151203,-2.63125 -0.11933,-5.28257 0.04847,-4.03172 0.157992,-5.21633 0.669288,-7.23899 0.650625,-2.57384 1.939559,-5.20244 3.47451,-7.08577 2.02866,-2.48908 6.144008,-5.29825 8.996556,-6.1411 l 1.1264,-0.33283 -1.258691,-0.72347 c -4.806625,-2.76277 -7.47257,-8.99924 -5.995956,-14.0264 1.076329,-3.66439 4.145921,-7.31363 7.07318,-8.40886 5.345028,-1.99983 10.394136,-1.00172 14.177058,2.80253 1.375421,1.38318 1.948659,2.20732 2.531883,3.64008 1.460398,3.58763 1.152632,8.51119 -0.723562,11.57535 -0.8685,1.41842 -3.019514,3.56417 -4.360994,4.35033 l -1.148945,0.67332 1.978767,0.86021 c 4.464783,1.94092 5.57176,2.95061 5.8051,5.29495 0.216902,2.17919 0.792128,3.97008 1.819888,5.66598 l 0.868221,1.43264 -2.014526,2.00694 c -1.305856,1.30094 -2.312756,2.59857 -2.8623,3.68876 -0.955726,1.89597 -1.870049,5.1693 -1.870049,6.69488 v 1.01601 H 72.414491 c -13.0722,0 -14.006294,-0.0305 -14.17189,-0.46199 z m 31.076915,-0.48948 c 0,-1.33136 0.708019,-3.66791 1.658413,-5.47295 1.06251,-2.01798 3.65485,-4.41921 5.99078,-5.54911 l 1.83997,-0.89002 -0.9351,-0.50358 c -1.25647,-0.67666 -2.93249,-2.60417 -3.69581,-4.25039 -1.849506,-3.98871 -0.461,-8.91315 3.17597,-11.26384 2.04119,-1.31928 3.263041,-1.62962 5.856401,-1.48748 1.60654,0.088 2.4355,0.28188 3.43958,0.80428 5.28326,2.74871 6.57214,9.3874 2.75908,14.21128 -0.57142,0.7229 -1.50076,1.58015 -2.06519,1.905 l -1.02625,0.59063 2.10686,1.02522 c 4.45865,2.16961 7.60179,6.64395 7.61507,10.84024 l 0.003,0.99219 H 102.68097 89.319516 Z m 29.393054,-1.48079 c -0.18251,-1.19221 -0.61525,-2.92064 -0.96165,-3.84094 -0.71895,-1.91006 -2.65279,-4.75327 -3.97338,-5.84182 l -0.89594,-0.73851 1.5436,-1.57688 c 1.53204,-1.56508 4.81629,-3.70834 6.69985,-4.37224 l 0.98157,-0.34598 -1.24616,-0.84014 c -4.39532,-2.96325 -6.28471,-7.89493 -4.82464,-12.59326 0.98415,-3.16684 3.11536,-5.56753 6.24281,-7.03214 1.41722,-0.6637 1.85057,-0.73479 4.47943,-0.73479 2.71871,0 3.02682,0.0551 4.67773,0.83728 4.43878,2.10291 6.79883,6.03601 6.49963,10.83185 -0.22271,3.56972 -1.8284,6.3855 -4.81384,8.44165 l -1.48157,1.02039 1.26319,0.55388 c 3.05491,1.3395 4.26427,2.15692 6.4288,4.34531 3.4542,3.49229 4.63186,6.34858 4.73547,11.48545 l 0.0518,2.56857 h -12.53744 -12.53744 z m 27.89566,-51.40488 c -0.79115,-0.28667 -2.67188,-2.00706 -7.58704,-6.94023 -5.6017,-5.62224 -6.561,-6.700553 -6.71627,-7.549533 -0.28034,-1.53284 0.0324,-2.23147 1.81799,-4.06153 1.57495,-1.614151 1.7137,-1.694901 2.91227,-1.694901 0.69219,0 1.63957,0.190438 2.10529,0.423197 0.46571,0.232758 2.59812,2.161241 4.73869,4.285514 l 3.89193,3.862323 1.66432,-1.62054 c 0.91537,-0.891303 5.66853,-5.599683 10.56258,-10.463071 7.7297,-7.681266 9.04307,-8.879278 10.00087,-9.122391 1.50709,-0.382542 2.72092,-0.0031 4.12215,1.288473 1.86608,1.720092 2.44847,3.610876 1.60415,5.208072 -0.52395,0.991174 -26.14566,26.510497 -26.62134,26.514957 -0.21194,0.002 -0.62347,0.0592 -0.91451,0.1272 -0.29105,0.068 -1.00253,-0.0479 -1.58108,-0.25754 z"
       id="path1" /></g></svg>
