<?xml version="1.0" encoding="UTF-8" standalone="no"?>
<!-- Created with Inkscape (http://www.inkscape.org/) -->

<svg
   width="148.28577mm"
   height="113.84649mm"
   viewBox="0 0 148.28577 113.84649"
   version="1.1"
   id="svg1"
   xml:space="preserve"
   xmlns="http://www.w3.org/2000/svg"
   xmlns:svg="http://www.w3.org/2000/svg"><defs
     id="defs1" /><g
     id="layer1"
     transform="translate(-27.817933,-63.435463)"><path
       style="fill:currentColor"
       d="m 50.190904,176.88721 c -4.625951,-1.24408 -8.254473,-5.10358 -9.258092,-9.84744 -0.207373,-0.9802 -0.296627,-9.08078 -0.296627,-26.92135 v -25.51927 h -3.294268 c -3.906627,0 -5.494364,-0.29567 -7.118397,-1.3256 -1.654729,-1.0494 -2.398399,-2.5209 -2.405533,-4.75982 -0.01059,-3.32413 1.578199,-5.26003 6.234282,-7.59628 1.511102,-0.75822 3.81902,-2.014363 5.128708,-2.791423 1.309687,-0.77706 4.405312,-2.585142 6.879166,-4.017953 2.473854,-1.432811 5.926666,-3.440793 7.672916,-4.462183 1.74625,-1.02139 4.841875,-2.830561 6.879167,-4.020379 2.037291,-1.189818 5.430572,-3.172406 7.540624,-4.405751 2.110052,-1.233345 5.443802,-3.176974 7.408333,-4.319176 1.964531,-1.142202 5.23875,-3.050903 7.276041,-4.241559 2.037292,-1.190655 5.132917,-2.999711 6.879167,-4.020124 8.224528,-4.805965 9.193688,-5.215835 12.303129,-5.203168 1.0914,0.0044 2.64954,0.209893 3.46253,0.456549 0.81298,0.246656 4.56345,2.248803 8.33437,4.449217 14.02091,8.181503 20.4031,11.861813 20.57011,11.861813 0.0608,0 0.18164,-0.355269 0.26849,-0.789487 0.0868,-0.434218 0.56861,-1.23789 1.07061,-1.785937 l 0.91271,-0.99645 6.17236,-0.07275 c 9.00065,-0.106088 8.63048,-0.488716 8.70388,8.996679 l 0.0503,6.499143 -1.84448,1.739988 -1.84448,1.739988 -1.43081,-1.22549 c -1.76725,-1.513656 -3.81986,-2.844334 -5.75174,-3.728781 -3.23926,-1.482981 -6.83888,-0.692139 -9.42271,2.070184 -2.52305,2.697351 -3.22076,5.793709 -2.02455,8.98486 0.46875,1.2505 1.17472,2.08295 5.03335,5.93502 2.46847,2.46428 4.42809,4.57764 4.35472,4.69636 -0.0734,0.11871 -1.52535,0.21468 -3.22663,0.21326 -2.68732,-0.002 -3.26827,-0.0841 -4.42697,-0.62365 -2.40696,-1.12083 -3.76947,-3.38311 -4.01819,-6.67169 l -0.14842,-1.96249 h -8.25889 -8.25889 l -0.13698,2.19557 c -0.16559,2.65426 -0.73847,3.9145 -2.47378,5.44198 -1.55623,1.36985 -2.47331,1.62018 -5.9305,1.6188 -2.363141,-9.4e-4 -2.978541,-0.0944 -4.119791,-0.62585 -0.73791,-0.34361 -1.72371,-1.08659 -2.19065,-1.65106 -0.97873,-1.18317 -1.89164,-3.86262 -1.89164,-5.55211 v -1.16275 H 85.218474 76.8841 v 1.68652 c 0,3.08512 -1.319794,5.41012 -3.76188,6.62706 -1.236572,0.61621 -1.668288,0.68225 -4.459841,0.68225 -3.515285,0 -4.418505,-0.26305 -6.090833,-1.7739 -1.568455,-1.41701 -2.156953,-2.74684 -2.30372,-5.20575 l -0.124441,-2.08485 -3.205163,0.13957 c -1.762839,0.0768 -3.643122,0.30058 -4.178406,0.49736 -1.705986,0.62715 -3.218393,1.9018 -4.05384,3.41655 l -0.79375,1.43915 -0.179015,11.37708 c -0.230357,14.64004 -0.01747,42.16155 0.34024,43.98434 0.555039,2.82837 3.030032,5.21584 6.086584,5.87135 0.861312,0.18472 16.985707,0.33822 47.954185,0.45652 l 46.65655,0.17822 1.69541,-0.79338 c 2.07801,-0.97241 3.2873,-2.14452 4.18345,-4.05482 l 0.68342,-1.45682 0.22542,-25.59134 0.22541,-25.59134 6.4817,-6.46696 6.4817,-6.46697 1.23039,0.70795 c 0.67671,0.38936 1.56185,0.87781 1.96698,1.08543 1.13952,0.58398 2.73417,2.21799 3.3581,3.44101 1.61651,3.16861 0.59433,6.55537 -2.45746,8.14224 -1.29119,0.67139 -1.62466,0.71982 -5.61918,0.81599 l -4.24653,0.10223 -0.069,25.96922 c -0.0468,17.5904 -0.16198,26.35336 -0.35712,27.15984 -1.053,4.35194 -5.0104,8.21025 -9.47668,9.2394 -0.79089,0.18224 -17.80954,0.26903 -51.32181,0.26171 -42.925385,-0.009 -50.343614,-0.0661 -51.564026,-0.3943 z m 21.41065,-68.77035 c 1.154771,-1.03033 1.313796,-1.9116 1.313796,-7.28069 0,-6.93949 -0.266878,-7.403691 -4.256523,-7.403691 -1.9451,0 -2.395629,0.08569 -3.015899,0.573591 -1.288006,1.013145 -1.458828,1.861997 -1.458828,7.24928 0,7.01106 0.349474,7.58569 4.536666,7.45958 1.850145,-0.0557 2.401145,-0.17012 2.880788,-0.59807 z m 33.530706,-0.24373 0.9883,-0.90518 0.081,-5.57206 c 0.0915,-6.300659 -0.0689,-7.05435 -1.66274,-7.810674 -1.17411,-0.557154 -3.89323,-0.54347 -5.092521,0.02563 -1.6535,0.784639 -1.91211,1.807117 -1.91884,7.586854 -0.008,6.9829 0.33298,7.54894 4.562141,7.57026 1.97612,0.01 2.09206,-0.0241 3.04271,-0.89483 z m -46.889659,58.91611 c -0.0975,-0.25409 -0.151203,-2.63125 -0.11933,-5.28257 0.04847,-4.03172 0.157992,-5.21633 0.669288,-7.23899 0.650625,-2.57384 1.939559,-5.20244 3.47451,-7.08577 2.02866,-2.48908 6.144008,-5.29825 8.996556,-6.1411 l 1.1264,-0.33283 -1.258691,-0.72347 c -4.806625,-2.76277 -7.47257,-8.99924 -5.995956,-14.0264 1.076329,-3.66439 4.145921,-7.31363 7.07318,-8.40886 5.345028,-1.99983 10.394136,-1.00172 14.177058,2.80253 1.375421,1.38318 1.948659,2.20732 2.531883,3.64008 1.460398,3.58763 1.152632,8.51119 -0.723562,11.57535 -0.8685,1.41842 -3.019514,3.56417 -4.360994,4.35033 l -1.148945,0.67332 1.978767,0.86021 c 4.464783,1.94092 5.57176,2.95061 5.8051,5.29495 0.216902,2.17919 0.792128,3.97008 1.819888,5.66598 l 0.868221,1.43264 -2.014526,2.00694 c -1.305856,1.30094 -2.312756,2.59857 -2.8623,3.68876 -0.955726,1.89597 -1.870049,5.1693 -1.870049,6.69488 v 1.01601 H 72.414491 c -13.0722,0 -14.006294,-0.0305 -14.17189,-0.46199 z m 31.076915,-0.48948 c 0,-1.33136 0.708019,-3.66791 1.658413,-5.47295 1.06251,-2.01798 3.65485,-4.41921 5.99078,-5.54911 l 1.83997,-0.89002 -0.9351,-0.50358 c -1.25647,-0.67666 -2.93249,-2.60417 -3.69581,-4.25039 -1.849506,-3.98871 -0.461,-8.91315 3.17597,-11.26384 2.04119,-1.31928 3.263041,-1.62962 5.856401,-1.48748 1.60654,0.088 2.4355,0.28188 3.43958,0.80428 5.28326,2.74871 6.57214,9.3874 2.75908,14.21128 -0.57142,0.7229 -1.50076,1.58015 -2.06519,1.905 l -1.02625,0.59063 2.10686,1.02522 c 4.45865,2.16961 7.60179,6.64395 7.61507,10.84024 l 0.003,0.99219 H 102.68097 89.319516 Z m 29.393054,-1.48079 c -0.18251,-1.19221 -0.61525,-2.92064 -0.96165,-3.84094 -0.71895,-1.91006 -2.65279,-4.75327 -3.97338,-5.84182 l -0.89594,-0.73851 1.5436,-1.57688 c 1.53204,-1.56508 4.81629,-3.70834 6.69985,-4.37224 l 0.98157,-0.34598 -1.24616,-0.84014 c -4.39532,-2.96325 -6.28471,-7.89493 -4.82464,-12.59326 0.98415,-3.16684 3.11536,-5.56753 6.24281,-7.03214 1.41722,-0.6637 1.85057,-0.73479 4.47943,-0.73479 2.71871,0 3.02682,0.0551 4.67773,0.83728 4.43878,2.10291 6.79883,6.03601 6.49963,10.83185 -0.22271,3.56972 -1.8284,6.3855 -4.81384,8.44165 l -1.48157,1.02039 1.26319,0.55388 c 3.05491,1.3395 4.26427,2.15692 6.4288,4.34531 3.4542,3.49229 4.63186,6.34858 4.73547,11.48545 l 0.0518,2.56857 h -12.53744 -12.53744 z m 27.89566,-51.40488 c -0.79115,-0.28667 -2.67188,-2.00706 -7.58704,-6.94023 -5.6017,-5.62224 -6.561,-6.700553 -6.71627,-7.549533 -0.28034,-1.53284 0.0324,-2.23147 1.81799,-4.06153 1.57495,-1.614151 1.7137,-1.694901 2.91227,-1.694901 0.69219,0 1.63957,0.190438 2.10529,0.423197 0.46571,0.232758 2.59812,2.161241 4.73869,4.285514 l 3.89193,3.862323 1.66432,-1.62054 c 0.91537,-0.891303 5.66853,-5.599683 10.56258,-10.463071 7.7297,-7.681266 9.04307,-8.879278 10.00087,-9.122391 1.50709,-0.382542 2.72092,-0.0031 4.12215,1.288473 1.86608,1.720092 2.44847,3.610876 1.60415,5.208072 -0.52395,0.991174 -26.14566,26.510497 -26.62134,26.514957 -0.21194,0.002 -0.62347,0.0592 -0.91451,0.1272 -0.29105,0.068 -1.00253,-0.0479 -1.58108,-0.25754 z"
       id="path1" /></g></svg>
