<?xml version="1.0" encoding="UTF-8" standalone="no"?>
<!-- Created with Inkscape (http://www.inkscape.org/) -->

<svg
   width="138.10362mm"
   height="20.549231mm"
   viewBox="0 0 138.10362 20.549231"
   version="1.1"
   id="svg1"
   xml:space="preserve"
   xmlns="http://www.w3.org/2000/svg"
   xmlns:svg="http://www.w3.org/2000/svg"><defs
     id="defs1" /><g
     id="layer1"
     transform="translate(-32.671592,-189.51435)"><path
       style="fill:#000000"
       d="m 46.54379,209.60092 c -1.743851,-0.79177 -2.533939,-2.57886 -1.938194,-4.38399 0.555247,-1.68241 2.762829,-2.78826 6.383995,-3.19795 l 1.609941,-0.18215 -0.152794,-0.95478 c -0.08404,-0.52513 -0.407729,-1.16314 -0.719318,-1.4178 -0.758135,-0.61963 -2.534004,-0.59529 -4.189933,0.0574 l -1.320371,0.52044 -0.54864,-0.69748 c -0.301752,-0.38362 -0.506408,-0.82618 -0.454792,-0.98346 0.175069,-0.53349 2.122481,-1.4328 3.779802,-1.74552 3.09903,-0.58474 5.514926,0.65454 6.194283,3.17748 0.158063,0.587 0.246678,2.95041 0.205396,5.47807 l -0.07261,4.44565 -0.877179,0.0842 c -0.99209,0.0952 -1.636362,-0.31214 -1.636362,-1.03466 0,-0.4457 -0.08442,-0.43151 -0.957394,0.16091 -1.832678,1.24368 -3.565683,1.4637 -5.305834,0.67362 z m 4.408222,-2.26381 c 1.053154,-0.5446 1.590422,-1.39915 1.590422,-2.52964 v -0.95517 l -1.42773,0.19374 c -2.706645,0.3673 -3.599353,0.89433 -3.599353,2.12494 0,1.38356 1.821192,2.00152 3.436661,1.16613 z m 57.275278,2.49517 c -2.63106,-0.76514 -3.39351,-4.75747 -1.20605,-6.31508 0.84768,-0.6036 3.06044,-1.23998 5.11859,-1.47207 l 1.52135,-0.17156 v -1.0332 c 0,-0.81058 -0.14276,-1.12674 -0.66259,-1.46734 -0.87553,-0.57367 -2.36049,-0.52825 -4.01201,0.12272 -1.22031,0.481 -1.39518,0.49229 -1.92094,0.12403 -0.38727,-0.27125 -0.55157,-0.62374 -0.49717,-1.06664 0.0651,-0.5302 0.39634,-0.79476 1.66875,-1.33291 3.28238,-1.38824 6.67626,-0.67896 7.87915,1.64663 0.47522,0.91877 0.56437,1.6699 0.66745,5.62338 0.13256,5.08438 0.0583,5.3589 -1.44901,5.3589 -0.76908,0 -0.94932,-0.12024 -1.18238,-0.78879 l -0.27497,-0.78879 -0.83574,0.61996 c -1.5275,1.13311 -3.09785,1.43996 -4.81443,0.94076 z m 4.66966,-3.05413 c 0.601,-0.57579 0.76423,-0.96554 0.76423,-1.82474 v -1.09256 l -1.53227,0.18067 c -1.54438,0.18209 -3.23023,0.85788 -3.23023,1.29486 0,0.12988 -0.0702,0.41919 -0.15608,0.6429 -0.0929,0.24208 0.12946,0.6923 0.54928,1.11211 0.60033,0.60033 0.86436,0.68404 1.7731,0.56215 0.66525,-0.0892 1.35583,-0.41921 1.83197,-0.87539 z m 39.65627,3.08837 c -2.0391,-0.62027 -3.99896,-2.44386 -4.47712,-4.16584 -0.40486,-1.45798 -0.34764,-4.10047 0.11264,-5.20208 1.23399,-2.95335 4.29567,-4.52446 7.5159,-3.85681 1.16521,0.24159 1.71373,0.54003 2.57569,1.40139 1.65568,1.65452 2.31709,4.4259 1.34947,5.6544 -0.18936,0.24041 -1.43877,0.33073 -4.57526,0.33073 h -4.31475 l 0.2411,0.8599 c 0.13261,0.47294 0.65833,1.24684 1.16827,1.71979 0.81152,0.75264 1.10793,0.85989 2.37646,0.85989 0.83415,0 2.02963,-0.22874 2.81655,-0.53892 1.28687,-0.50723 1.39633,-0.5126 1.86188,-0.0913 0.70374,0.63688 0.62389,1.59164 -0.17701,2.11641 -1.38431,0.90703 -4.87443,1.39893 -6.47382,0.91242 z m 4.39634,-8.80205 c -0.35456,-1.77277 -2.10191,-2.68893 -3.95935,-2.07592 -1.0707,0.35337 -1.33477,0.62621 -1.88838,1.9512 l -0.40608,0.97189 h 3.21162 3.21162 z m -123.920146,8.60944 c -0.468413,-0.189 -0.481181,-18.3539 -0.01323,-18.82185 0.448384,-0.44838 10.558283,-0.44838 11.006666,0 0.409289,0.40929 0.409289,1.60154 0,2.01083 -0.21734,0.21734 -1.511064,0.3175 -4.101041,0.3175 h -3.783542 v 2.90274 2.90274 l 3.505729,0.0738 3.505729,0.0738 v 1.19062 1.19063 l -3.174999,0.16256 c -1.74625,0.0894 -3.323828,0.17871 -3.505729,0.19844 -0.246873,0.0268 -0.33073,0.96165 -0.33073,3.68712 0,2.48709 -0.101231,3.75248 -0.317499,3.96875 -0.311626,0.31163 -2.140625,0.40485 -2.791355,0.14227 z m 25.52244,0.011 c -0.103723,-0.10372 -0.188587,-3.02624 -0.188587,-6.49449 v -6.3059 h 1.19724 c 1.118134,0 1.20771,0.0524 1.355712,0.79236 l 0.158473,0.79237 0.888859,-0.78043 c 1.374214,-1.20658 2.727489,-1.51489 4.192873,-0.95526 0.672746,0.25693 1.441964,0.8022 1.758221,1.24634 0.557387,0.78278 0.565546,0.78485 0.946869,0.24043 0.419384,-0.59875 1.904504,-1.422 3.071561,-1.70267 1.104101,-0.26552 2.827916,0.3075 3.77543,1.25502 1.135217,1.13521 1.440178,2.73153 1.440178,7.53861 0,4.27859 -0.08492,4.53781 -1.486485,4.53781 -1.735617,0 -1.688515,0.13767 -1.688515,-4.93512 0,-4.54596 -0.0096,-4.6235 -0.649432,-5.26336 -0.357187,-0.35715 -0.896792,-0.64939 -1.199123,-0.64939 -0.878746,0 -2.31723,0.70232 -2.628065,1.28312 -0.170494,0.31857 -0.28588,2.23676 -0.28588,4.7525 0,4.73613 -0.06216,4.90364 -1.767472,4.76322 l -1.010652,-0.0832 -0.16324,-4.74588 -0.163239,-4.74588 -0.742928,-0.63904 c -0.929465,-0.7995 -2.282478,-0.66008 -3.281997,0.33817 -0.660169,0.65933 -0.678716,0.77947 -0.807971,5.23373 l -0.132292,4.5589 -1.200476,0.0783 c -0.660261,0.0431 -1.285339,-0.007 -1.389062,-0.11024 z m 26.851829,-0.15331 c -0.45484,-0.45484 -0.45484,-18.22474 0,-18.67958 0.48721,-0.48721 7.170107,-0.42258 8.882346,0.0859 2.61553,0.77673 4.02932,2.65565 4.02932,5.35494 0,2.73935 -1.59523,4.95482 -4.20667,5.84227 -0.49466,0.1681 -1.953173,0.30564 -3.241145,0.30564 h -2.341768 v 3.38667 c 0,2.28129 -0.103629,3.49029 -0.3175,3.70416 -0.174625,0.17463 -0.805656,0.3175 -1.402292,0.3175 -0.596635,0 -1.227666,-0.14287 -1.402291,-0.3175 z m 8.528186,-10.51318 c 1.47224,-1.38409 1.37137,-3.98489 -0.19979,-5.15134 -0.585459,-0.43465 -1.22519,-0.57445 -2.961051,-0.64709 l -2.214246,-0.0927 -0.08165,3.35756 -0.08165,3.35757 2.426569,-0.0899 c 2.139198,-0.0793 2.507722,-0.1662 3.111826,-0.73413 z m 6.526241,10.46525 c -0.475761,-0.57326 -0.35516,-19.36001 0.12685,-19.76004 0.18541,-0.15388 0.85193,-0.24274 1.48115,-0.19747 l 1.14403,0.0823 v 10.05417 10.05416 l -1.2138,0.0789 c -0.82626,0.0537 -1.31738,-0.0459 -1.53823,-0.31203 z m 19.31583,0.002 c -0.21169,-0.25508 -0.28073,-2.17415 -0.23083,-6.41615 l 0.0712,-6.05222 1.12324,-0.0813 c 0.97475,-0.0705 1.16232,0.004 1.41873,0.56721 l 0.29548,0.64851 0.93267,-0.63293 c 2.59693,-1.76232 5.61837,-1.2408 7.06349,1.2192 0.48163,0.81988 0.55394,1.46039 0.63546,5.6294 0.10176,5.20427 0.0295,5.4822 -1.42566,5.4822 -1.7528,0 -1.70865,0.1218 -1.71294,-4.72466 -0.004,-4.83391 -0.16855,-5.52233 -1.41649,-5.93641 -0.92524,-0.30701 -2.60804,0.13742 -3.35727,0.88665 -0.46691,0.46691 -0.51401,0.9092 -0.51401,4.82671 0,3.00156 -0.0965,4.40924 -0.3175,4.63021 -0.43342,0.43342 -2.19377,0.40157 -2.56557,-0.0464 z m 14.39107,0.12485 c -0.16406,-0.16379 -0.23478,-2.61005 -0.18774,-6.49414 l 0.0755,-6.23137 h 1.18792 c 1.11239,0 1.19817,0.0513 1.3492,0.80642 0.16087,0.80433 0.16274,0.80509 0.72099,0.29553 2.83465,-2.5874 6.96491,-1.75148 7.96369,1.61176 0.51077,1.71997 0.57585,9.44124 0.0837,9.93337 -0.17462,0.17463 -0.70066,0.3175 -1.16898,0.3175 -1.72929,0 -1.68813,0.11492 -1.69242,-4.72466 -0.003,-2.96549 -0.11062,-4.61264 -0.33073,-5.04403 -0.69949,-1.37097 -3.0799,-1.2967 -4.51755,0.14095 -0.68342,0.68342 -0.69239,0.74324 -0.76395,5.0935 l -0.0724,4.40195 -1.192,0.078 c -0.6556,0.0429 -1.31044,-0.0402 -1.45521,-0.18478 z m 28.50524,0.0179 c -0.25902,-0.1644 -0.31947,-1.62932 -0.26458,-6.41209 l 0.0711,-6.19901 h 1.19063 c 1.14826,0 1.19905,0.0341 1.42733,0.95781 l 0.2367,0.95782 0.75427,-0.85907 c 0.96234,-1.09605 1.97139,-1.5089 3.43221,-1.40428 1.13747,0.0815 1.16263,0.10358 1.24417,1.09379 0.0957,1.16207 -0.33975,1.84768 -1.03361,1.62745 -0.88234,-0.28004 -2.54336,0.37806 -3.39107,1.34354 l -0.81792,0.93156 v 3.77434 c 0,2.58281 -0.10023,3.87456 -0.3175,4.09183 -0.35791,0.35792 -2.01998,0.42114 -2.53176,0.0963 z M 79.854464,196.92721 c -0.412052,-0.26151 -0.478119,-0.59692 -0.71469,-3.6284 -0.216301,-2.77174 -0.02807,-3.11616 1.628465,-2.97976 l 1.010652,0.0832 -0.04499,3.14631 c -0.0458,3.20317 -0.169947,3.59246 -1.145634,3.59246 -0.218281,0 -0.548492,-0.0962 -0.733802,-0.21383 z"
       id="path1" /></g></svg>
